<svg width="130" height="242" viewBox="0 0 130 242" fill="none" xmlns="http://www.w3.org/2000/svg">
<path d="M50.4 211.677H80.064C83.52 211.677 85.248 210.141 85.248 207.069V205.917C85.248 203.037 83.52 201.597 80.064 201.597H50.4C47.328 201.597 45.792 203.133 45.792 206.205V207.357C45.792 210.237 47.328 211.677 50.4 211.677ZM61.92 57.5974H129.888V89.8534H109.152V91.2934C115.296 96.6694 118.368 103.677 118.368 112.317C118.368 143.037 100.992 158.397 66.24 158.397H52.416C48.96 158.397 47.232 160.029 47.232 163.293C47.232 166.365 48.864 167.901 52.128 167.901H91.296C113.376 167.901 124.416 177.501 124.416 196.701C124.416 212.445 119.136 223.773 108.576 230.685C98.016 237.789 83.424 241.341 64.8 241.341C46.176 241.341 32.064 239.325 22.464 235.293C13.056 231.453 8.352 224.157 8.352 213.405C8.352 207.453 12.096 202.461 19.584 198.429V197.277C10.176 192.093 5.472 184.605 5.472 174.813C5.472 163.293 12.864 154.557 27.648 148.605C20.736 143.613 15.552 137.853 12.096 131.325C8.832 124.605 7.2 115.773 7.2 104.829C7.2 89.6614 12.096 78.0454 21.888 69.9814C31.872 61.7254 45.216 57.5974 61.92 57.5974ZM74.592 112.893C74.592 106.749 73.824 102.333 72.288 99.6454C70.944 96.7654 68.352 95.3254 64.512 95.3254C60.672 95.3254 57.984 96.7654 56.448 99.6454C55.104 102.333 54.432 106.557 54.432 112.317C54.432 124.029 57.888 129.885 64.8 129.885C71.328 129.885 74.592 124.221 74.592 112.893Z" fill="#0500FF" fill-opacity="0.5"/>
<path d="M90.448 64.528V142H42.64V4.04799H84.688L87.568 12.4H88.72C93.136 7.408 97.552 4.24 101.968 2.896C106.576 1.35999 113.968 0.591992 124.144 0.591992L122.128 46.672H108.88C101.392 46.672 96.4 47.824 93.904 50.128C91.6 52.432 90.448 57.232 90.448 64.528Z" fill="#0500FF" fill-opacity="0.5"/>
</svg>
